PathFileType	4	(X/Y/Z)	C:/Users/beibeiliu/ov580/test_trc/capture2\sequence.16_training_dense_left.trc
DataRate	CameraRate	NumFrames	NumMarkers	Units	OrigDataRate	OrigDataStartFrame	OrigNumFrames
120	120	8	19	mm	120	301	400
Frame#	Time	ThumbCMC			ThumbMCP			ThumbIP			ThumbTip			IndexMCP			IndexPIP			IndexTip			MiddleMCP			MiddlePIP			MiddleTip			RingMCP			RingPIP			RingTip			PinkyMCP			PinkyPIP			PinkyTip			BackHand1			BackHand2			BackHand3	
		X0	Y0	Z0	X1	Y1	Z1	X2	Y2	Z2	X3	Y3	Z3	X4	Y4	Z4	X5	Y5	Z5	X6	Y6	Z6	X7	Y7	Z7	X8	Y8	Z8	X9	Y9	Z9	X10	Y10	Z10	X11	Y11	Z11	X12	Y12	Z12	X13	Y13	Z13	X14	Y14	Z14	X15	Y15	Z15	X16	Y16	Z16	X17	Y17	Z17	X18	Y18	Z18	
300	2.5	-114.184	111.763	-31.9807	-97.1045	120.895	-54.1351	-83.9415	134.145	-68.7834	-66.7174	147.645	-79.0292	-131.506	140.53	-106.109	-126.463	146.707	-127.893	-135.103	149.469	-152.751	-136.483	111.096	-117.573	-119.518	84.7774	-121.17	-114.704	74.8434	-87.2475	-147.099	94.498	-114.053	-130.279	72.333	-106.102	-129.143	74.9564	-68.6557	-159.638	82.8272	-107.206	-142.529	65.5337	-93.6852	-140.395	75.6131	-64.2847	-170.239	116.362	-64.1053	-171.868	112.595	-36.2624	-147.492	125.995	-45.0712	
301	2.50833	-114.306	111.446	-36.161	-94.2352	119.13	-54.2452	-76.9343	130.208	-65.9407	-64.1021	140.656	-76.1508	-126.164	143.683	-101.726	-122.603	151.134	-125.53	-124.401	158.689	-150.999	-136.481	119.39	-114.534	-123.427	86.7895	-120.17	-123.731	76.6311	-87.6475	-147.665	105.179	-111.911	-136.602	74.6647	-107.205	-130.492	80.3684	-71.3121	-164.285	92.873	-108.762	-147.702	72.0837	-95.1377	-144.178	81.4796	-65.6656	-171.879	122.959	-63.8952	-173.038	117.412	-35.0253	-141.51	131.604	-43.0509	
302	2.51667	-110.321	111.276	-34.8012	-90.3349	117.106	-53.1672	-75.705	126.498	-64.5126	-56.2351	139.136	-77.3495	-116.645	149.42	-99.6466	-115.948	156.504	-122.898	-118.014	165.825	-151.276	-133.662	123.517	-116.936	-124.139	92.5832	-121.172	-122.758	81.7009	-89.2352	-146.661	110.128	-115.33	-140.924	81.1256	-108.961	-135.5	84.6502	-71.9819	-163.372	103.172	-108.161	-148.783	80.5029	-97.0556	-147.806	88.0433	-65.8997	-167.779	131.772	-62.198	-172.542	121.584	-34.8189	-137.129	131.751	-39.8747	
303	2.525	-111.251	111.3	-34.8531	-89.0156	117.211	-51.567	-73.9094	126.334	-65.2989	-54.1471	135.031	-74.372	-116.88	153.401	-98.8748	-114.087	162.26	-124.994	-113.779	171.116	-146.788	-130.129	130.118	-118.498	-127.315	98.4468	-121.525	-123.998	89.2122	-87.103	-150.278	119.239	-112.449	-138.709	90.7679	-109.94	-137.596	89.8063	-74.8855	-162.568	114.337	-106.774	-152.702	85.6994	-95.6626	-149.829	92.8269	-67.8039	-163.934	140.258	-63.9855	-170.333	130.742	-35.315	-135.849	135.858	-39.7182	
304	2.53333	-110.641	114.338	-36.5436	-87.245	116.473	-51.564	-71.9319	128.268	-67.2358	-53.5745	137.03	-78.4592	-111.757	157.051	-99.0899	-108.976	166.524	-124.103	-110.997	176.928	-146.085	-131.814	136.653	-114.746	-129.365	108.329	-124.435	-130.002	93.9171	-87.5538	-146.269	125.001	-113.901	-138.683	95.6516	-107.643	-139.446	94.193	-77.1843	-162.917	120.511	-107.435	-152.894	95.5402	-97.605	-149.367	99.4415	-66.3356	-159.507	147.005	-57.7645	-162.353	134.366	-33.0968	-129.005	140.649	-39.2819	
305	2.54167	-108.154	118.59	-36.909	-90.7029	118.39	-53.3062	-67.2819	129.597	-66.3643	-49.0831	135.963	-76.5169	-104.178	163.079	-100.029	-104.833	171.609	-120.233	-104.843	184.157	-146.356	-129.564	144.742	-111.669	-126.691	114.76	-123.874	-126.606	99.3329	-88.1966	-147.13	133.965	-111.81	-145.56	103.273	-110.424	-138.215	101.55	-76.3823	-165.47	131.549	-105.408	-155.046	101.866	-98.9416	-148.658	106.997	-65.7582	-157.51	152.283	-57.7888	-163.212	143.475	-32.6311	-128.848	144.17	-36.8956	
306	2.55	-107.659	119.063	-34.6471	-88.7174	122.033	-55.0584	-65.2858	133.255	-68.5672	-47.8176	136.47	-74.7974	-104.78	167.929	-97.4077	-102.071	178.108	-121.611	-102.041	188.918	-142.914	-126.011	151.461	-111.659	-127.364	121.575	-123.181	-127.195	105.791	-87.6332	-145.873	141.067	-112.012	-141.546	109.468	-106.665	-141.209	107.327	-76.0464	-159.548	141.149	-103.441	-153.572	111.03	-97.9016	-150.427	112.487	-67.0604	-152.231	160.33	-56.643	-158.706	148.135	-29.7567	-127.646	149.958	-36.9081	
307	2.55833	-101.936	122.079	-33.1334	-82.6503	121.968	-50.8147	-64.9975	133.119	-66.8788	-45.8428	140.05	-77.2732	-98.7694	172.974	-93.8379	-98.1942	182.918	-117.158	-99.3153	194.488	-138.158	-124.552	157.61	-110.191	-128.214	125.812	-121.664	-128.775	111.486	-89.6195	-139.837	149.534	-109.98	-140.014	118.872	-107.747	-141.556	113.773	-76.2748	-159.247	147.788	-103.601	-154.259	119.504	-99.5961	-148.315	119.474	-65.2508	-150.274	165.296	-53.418	-152.85	153.298	-28.3549	-119.749	152.735	-34.0325	
